<svg id="Layer_1" data-name="Layer 1" xmlns="http://www.w3.org/2000/svg" viewBox="0 0 392.13 301.51"><defs><style>.cls-1{fill:#e9e9e9;}</style></defs><title>Logo</title><path class="cls-1" d="M262.36,266.55c.68,2.85,1.22,5.54,2,8.17.47,1.63-.1,2.33-1.49,3.09-19.47,10.58-33.07,26.26-40.58,47.14-11.92,33.17-.71,72,26.8,94,17.24,13.78,36.82,20,58.72,18.92,5.94-.29,11.83-1.54,18.06-2.39l4.73,8.55c-38.22,13-93.52-2.07-115.66-53.7C193.3,339.92,218.52,286.51,262.36,266.55Z" transform="translate(-108.17 -256.84)"/><path class="cls-1" d="M343.26,439c-.72-3-1.57-5.93-2.06-8.93-.1-.64.95-1.76,1.73-2.19a86,86,0,0,0,27.49-23.57c13.65-18.29,19.67-38.76,16.66-61.51-4-30-19.68-52.13-46.41-66-18.26-9.52-37.77-11.25-57.81-6.59-1.86.44-2.88.24-3.71-1.57-1-2.26-2.35-4.4-3.52-6.6-.07-.13,0-.31,0-.47,41.9-13.71,97.22,5.94,116.59,58.29C411.79,372.74,381.69,422.08,343.26,439Z" transform="translate(-108.17 -256.84)"/><path class="cls-1" d="M339.49,448.7l-4.65-8.44c-14.61-26.63-29.3-53.21-43.72-79.94-2-3.72-2.92-8.1-3.91-12.27q-10.59-44.67-21-89.4a2.92,2.92,0,0,1,.09-1.81c1.7,3,3.42,6,5.09,9.07q21.48,39.18,42.89,78.4a31.83,31.83,0,0,1,2.8,7.93q11.2,47.36,22.26,94.74A13.87,13.87,0,0,1,339.49,448.7ZM285.32,306.42l-.34.13c.14.53.27,1.07.44,1.6q5.47,17.22,11,34.43c.39,1.22.58,2.13-.61,3.27a9.57,9.57,0,0,0,6,16.2,2.89,2.89,0,0,1,2.86,2.11c4.58,10.33,9.25,20.62,13.9,30.92.35.76.73,1.51,1.1,2.27a6.76,6.76,0,0,0-.39-3.24c-3.29-10.56-6.54-21.11-9.89-31.64-.48-1.5-.49-2.52.67-3.76a8.78,8.78,0,0,0,1.69-9.76,8.88,8.88,0,0,0-7.85-6.05,3,3,0,0,1-2.86-2.17q-7.25-16-14.57-32C286.1,308,285.7,307.19,285.32,306.42Z" transform="translate(-108.17 -256.84)"/><path class="cls-1" d="M108.42,545.15c-.45-3.45-.45-3.45,3.26-3.45l277.68,0h108c3.21,0,3.24,0,2.72,3.43Z" transform="translate(-108.17 -256.84)"/><path class="cls-1" d="M304.5,470.73H496.75c.75,0,1.64-.24,2.21.08a2.77,2.77,0,0,1,1.28,1.87c0,.5-.68,1.25-1.25,1.59s-1.13.06-1.71.06h-386c-1.46,0-3.52.6-3-2.11a2.2,2.2,0,0,1,1.27-1.4,6.61,6.61,0,0,1,2.23-.07Z" transform="translate(-108.17 -256.84)"/><path class="cls-1" d="M398.9,554.66v3.7H209.1v-3.7Z" transform="translate(-108.17 -256.84)"/><path class="cls-1" d="M398.9,457.67v3.68H209.11v-3.68Z" transform="translate(-108.17 -256.84)"/><path class="cls-1" d="M291.26,371.83,266,390l-.36-.36,19.61-27.34-55.6-9.17,0-.45,51.05-8.28C282.3,354.25,285.16,363.55,291.26,371.83Z" transform="translate(-108.17 -256.84)"/><path class="cls-1" d="M282.59,274.29c38-10.2,80.4,9.63,95.7,49.16,15.54,40.17-2.45,82.59-38.1,101.41-1.2-1.58-.71-2.49.95-3.44,16.37-9.46,28.53-22.81,34.9-40.63,10.83-30.28,5.18-57.75-16.23-81.65-11.95-13.34-27.29-21.08-45-23.95a77.24,77.24,0,0,0-29.29,1C283.52,276.62,283.52,276.61,282.59,274.29Z" transform="translate(-108.17 -256.84)"/><path class="cls-1" d="M323.44,431.31c-38.63,10.71-81.52-9.46-96.71-49.65A80.64,80.64,0,0,1,265.45,281c1.53,2.06,0,2.76-1.48,3.63-20.26,11.87-33.77,29.13-38.17,52.16-6.23,32.67,4.22,59.82,30.92,79.79,18.87,14.12,40.44,17.93,63.51,13.07C322.36,429.15,322.35,429.12,323.44,431.31Z" transform="translate(-108.17 -256.84)"/><path class="cls-1" d="M375.81,353.1l-50.72,8.4c-1.41-5.85-2.81-11.68-4.29-17.79l55,8.93Z" transform="translate(-108.17 -256.84)"/><path class="cls-1" d="M403,504.72c6.66,2.53,8.67,5.51,8.07,11.7A8.32,8.32,0,0,1,405.2,524c-5,1.78-10.14,1.61-15.29,1.4-2.16-.09-2.51-1.74-2.51-3.6,0-8.15,0-16.3,0-24.45V486.58c5.59-1.26,11.6-1.64,17.32,1,5.9,2.75,6.07,12,.47,15.81C404.53,503.89,403.81,504.27,403,504.72Zm-10.87,1.08v17.84a72.36,72.36,0,0,0,8.5-1c3.94-.9,5.81-3.75,5.75-7.93-.07-4.54-2.08-7.38-6.17-8.16C397.65,506.09,395,506.06,392.15,505.8Zm0-17.93V504c4.26,0,8.72.86,11.19-3.68,1.72-3.16,1.94-6.71-.37-9.64C400.22,487.14,396.11,487.81,392.17,487.87Z" transform="translate(-108.17 -256.84)"/><path class="cls-1" d="M359.89,528.43c-1.7,3.39-1.56,5.67.44,7.08,2.82,2,8.08,1.4,10.19-1.59a18.57,18.57,0,0,0,2.62-6.6,26.2,26.2,0,0,0,.21-6.88,10.17,10.17,0,0,1-9.65,5.17c-4-.14-6.78-2-8.05-5.6A23.63,23.63,0,0,1,356,502.7c1.88-4.61,5.63-6.37,10.29-6.52,3.7-.12,7.33.36,10.42,2.67a3.06,3.06,0,0,1,1.25,1.93c-.06,8.9.3,17.85-.51,26.69-.84,9.2-11,14-19.27,9.89-2.71-1.36-4-3.52-3.63-6.22C354.9,528.19,357.14,527.06,359.89,528.43Zm13.82-21-.13,0c0-1.91.06-3.83,0-5.74a3.07,3.07,0,0,0-.73-1.95c-3.58-3.22-10.77-1.51-12.36,3a27.06,27.06,0,0,0-.6,16c.57,2.23,1.85,3.95,4.32,4.3s5.09-.09,6.65-2.42a13.19,13.19,0,0,0,2.09-4.73C373.43,513.11,373.47,510.27,373.71,507.46Z" transform="translate(-108.17 -256.84)"/><path class="cls-1" d="M468.13,499.46c0-3.82.09-7.77,0-11.71-.06-1.68-.43-3.24,2-3.33,2.2-.08,2.93,1.19,2.93,3.14q0,6.24,0,12.49c0,6.32-.08,12.65-.05,19,0,3.12.51,3.52,3.48,3.12.71,2.05-.19,3.14-2.14,3.61-2.92.71-4.1-.53-5.92-6.25-.54.85-1,1.6-1.49,2.32-2.56,3.74-6.24,4.84-10.5,4.11-3.74-.63-5.54-3.34-6.49-6.77a26.43,26.43,0,0,1,.36-15.23C452.75,495.85,462.82,493.42,468.13,499.46Zm.87,9-.49-.18c-.17-1.31-.28-2.64-.53-3.94-.61-3.18-2.5-5.08-5.32-5.43-3.37-.43-5.92.83-7.22,4a24.14,24.14,0,0,0-.53,17,4.6,4.6,0,0,0,6.54,3.07c1.7-.73,3.65-2.13,4.33-3.72C467.25,515.86,468,512.1,469,508.48Z" transform="translate(-108.17 -256.84)"/><path class="cls-1" d="M208.74,509.34a54.19,54.19,0,0,0-.75-6.12,7,7,0,0,0-10.74-3.93c-2.35,1.61-2.2,4.73.43,7.56a3.55,3.55,0,0,1-4.77,0,5.33,5.33,0,0,1-1.39-6.14,4.42,4.42,0,0,1,1.06-1.66c4.27-3.59,9.19-3.54,14.15-2.13,4.38,1.25,6,4.85,6.22,9,.25,4.4.05,8.82.16,13.23.08,3.17,1.09,3.79,4,2.71.63,2.19-.05,3.44-2.18,4-3.37.87-4.84-.76-6.47-7.42-.62.85-1.09,1.55-1.61,2.21-2.54,3.21-5.68,5.33-9.94,5.37-3.33,0-5.76-1.3-6.63-3.87a7.2,7.2,0,0,1,1.85-8c3.31-3.15,7.53-4.07,11.89-4.54C205.42,509.44,206.83,509.44,208.74,509.34Zm-.29,1.63c-2.77.43-5.41.46-7.75,1.3a13,13,0,0,0-5.12,3.64,4.35,4.35,0,0,0,0,5.57c1.38,1.85,3.36,1.59,5.24,1C205,521.08,208.37,516.16,208.45,511Z" transform="translate(-108.17 -256.84)"/><path class="cls-1" d="M321.35,500c-.55-2.34,0-3.33,2.17-3.7,3.06-.53,4.57,1.07,5.3,5.91,1.9-3.08,4.14-5.33,7.73-5.91,5.46-.89,9.65,1.86,10.4,7.39.46,3.36.34,6.8.47,10.2.12,3.16.11,6.33.41,9.47.13,1.38.08,2.32-1.43,2.57s-2.92,0-3.34-1.76a14.71,14.71,0,0,1-.14-3c-.13-5.57-.14-11.15-.43-16.71-.12-2.48-1.06-4.77-3.9-5.47a6.09,6.09,0,0,0-7.12,3.3,33.6,33.6,0,0,0-2.34,9.78,75,75,0,0,0,.35,11.2c.08,1.27.29,2.6-1.32,2.55a5.77,5.77,0,0,1-3.24-1.5c-.46-.39-.32-1.56-.33-2.39,0-6.32,0-12.65,0-19C324.54,499.92,324.17,499.64,321.35,500Z" transform="translate(-108.17 -256.84)"/><path class="cls-1" d="M444.54,522.14c1,1.82.27,3-1.51,3.65-2.87,1-4.66-.52-6.08-5.32-.55.73-1,1.35-1.46,1.95-2.74,3.53-6.46,4.3-10.53,3.39-3.67-.82-5.3-3.63-5.55-7.14-.28-4.14-.27-8.31-.42-12.46a66.44,66.44,0,0,0-.41-7.21c-.25-1.69.15-2.57,1.82-2.79s2.83.58,3,2.25c.18,2.32.08,4.66.14,7,.12,4.4.17,8.81.43,13.21.14,2.27,1.11,4.27,3.62,4.8,2.69.57,5.34-.15,6.46-2.61a30.48,30.48,0,0,0,2.78-9.66,78.67,78.67,0,0,0-.35-12.45c-.08-1.24-.18-2.38,1.25-2.31a5.4,5.4,0,0,1,3.23,1.39c.5.46.31,1.73.32,2.64.08,6.41.11,12.82.18,19.23C441.45,522.44,441.85,522.74,444.54,522.14Z" transform="translate(-108.17 -256.84)"/><path class="cls-1" d="M253,512.47c.46,4.46,1.34,8.45,5.83,9.93,4.83,1.6,9.16.63,12.19-4,.77,2.21.09,3.91-2.06,5.56-5.45,4.19-15.53,2.44-18.66-3.64-3.24-6.3-3.22-12.9.63-19,3.42-5.44,12.9-6.91,18.05-3.08,4.26,3.16,3.6,10.18-1.23,12.75-3.68,2-7.69,1.89-11.7,1.71C255.1,512.63,254.2,512.55,253,512.47Zm-.55-2.4c4.38,1,8.33.76,11-.42a6.56,6.56,0,0,0,3.39-8,5.2,5.2,0,0,0-6.66-3.27,8.84,8.84,0,0,0-4.9,3.34C253.78,504.22,253.3,507.23,252.4,510.07Z" transform="translate(-108.17 -256.84)"/><path class="cls-1" d="M149.91,488.48c-.06,1.15-.15,2-.15,2.93q.06,14.35.17,28.72a11.44,11.44,0,0,0,.25,3.22c.44,1.45.13,2.29-1.35,2.56s-2.89,0-3.31-1.75a9.73,9.73,0,0,1-.1-2.23q-.09-15.37-.18-30.73c0-.81-.09-1.62-.16-2.71-3.09.57-6,.94-8.77,1.65-2,.52-2.38-.63-2.6-2-.26-1.62.9-1.64,2.07-1.64,7.91,0,15.82,0,23.74,0,1.28,0,2.21.23,1.92,1.77-.24,1.3-.64,2.34-2.47,1.91C156.08,489.48,153.12,489.06,149.91,488.48Z" transform="translate(-108.17 -256.84)"/><path class="cls-1" d="M219.11,497.67c2.59-1.91,4.39-1.46,5.35,1.41,2.59,7.8,5.12,15.62,7.86,24,.9-2.76,1.7-5,2.38-7.3,1.81-6,3.52-12.09,5.41-18.1a2.38,2.38,0,0,1,2.06-1,3.32,3.32,0,0,1,2.27,1.68,6.12,6.12,0,0,1-.51,3.37c-2.8,7.38-5.73,14.71-8.51,22.1-.65,1.72-1.83,2.17-3.44,2.25a2.87,2.87,0,0,1-3.13-2.24c-2.72-7.5-5.51-15-8.28-22.46C220.11,500.09,219.6,498.88,219.11,497.67Z" transform="translate(-108.17 -256.84)"/><path class="cls-1" d="M302.54,426.06,295,380.14l.37-.17c.94,1.68,1.9,3.36,2.82,5,2.68,4.88,5.37,9.75,8,14.66a4,4,0,0,1,.67,2.3c-1.26,8-2.62,16-3.95,24.08Z" transform="translate(-108.17 -256.84)"/><path class="cls-1" d="M164.21,500.11c-.63-2.36.24-3.53,2.39-3.84,2.9-.41,4.39,1.11,5.06,5.38.69-1.09,1.22-2.07,1.89-2.92a7.36,7.36,0,0,1,8.61-2,5.39,5.39,0,0,1,3.32,5.83c-.32,2.73-2.12,3.93-4.92,3.21.25-1.1.82-2.26.68-3.32s-.74-2.95-1.58-3.26c-1.14-.43-3.35-.23-4,.58-1.42,1.82-2.85,4.12-3,6.32-.44,5.7-.28,11.45-.17,17.17,0,1.35,0,2.56-1.45,2.48a5.59,5.59,0,0,1-3.19-1.55c-.45-.4-.26-1.57-.26-2.4,0-6.41,0-12.82,0-19.23C167.52,499.83,167.05,499.52,164.21,500.11Z" transform="translate(-108.17 -256.84)"/><path class="cls-1" d="M302.93,521.72c1,1.69.27,2.84-1.17,3.69a5,5,0,0,1-7.17-2.73,10.35,10.35,0,0,1-.49-3.18c0-10.58,0-21.15,0-31.73,0-1.91.4-3.36,2.67-3.33,1.67,0,2.38.56,2.32,2.57-.28,10.81-.39,21.63-.44,32.45C298.61,522.41,300.05,523.09,302.93,521.72Z" transform="translate(-108.17 -256.84)"/><path class="cls-1" d="M287.86,521.78c.59,1.87.08,3.07-1.58,3.79-2,.87-4.76.47-5.9-1.24a7.5,7.5,0,0,1-1.35-3.88c-.12-11.06-.12-22.11-.08-33.17,0-2.32,1.56-3.46,3.6-2.65a2.53,2.53,0,0,1,1.29,1.91c-.07,11-.3,21.93-.38,32.89C283.44,522.47,284.55,523,287.86,521.78Z" transform="translate(-108.17 -256.84)"/><path class="cls-1" d="M303,280q3.6,21.93,7.18,43.86l-.54.18c-2.68-4.84-5.14-9.81-8.09-14.48a14.29,14.29,0,0,1-2.11-11.46c1.34-6,2.1-12.09,3.1-18.15Z" transform="translate(-108.17 -256.84)"/><path class="cls-1" d="M320.21,343.36l-5.4-9.86L339.16,316l.43.36Z" transform="translate(-108.17 -256.84)"/><path class="cls-1" d="M314.2,510.5c.24,4.55.53,9.1.63,13.66,0,.58-1.05,1.73-1.48,1.67a5.84,5.84,0,0,1-3.05-1.4c-.45-.42-.29-1.56-.29-2.39,0-6.31,0-12.62,0-18.93a18.07,18.07,0,0,0-.35-4c-.39-1.7-.07-2.79,1.83-2.95a2.4,2.4,0,0,1,2.92,2.58c.07,3.4,0,6.81,0,10.21v1.5Z" transform="translate(-108.17 -256.84)"/><path class="cls-1" d="M277.34,332.57l-11.7-16.32.3-.37c3.05,2.18,6.13,4.33,9.12,6.59a3.63,3.63,0,0,1,.89,2c.65,2.65,1.22,5.31,1.83,8Z" transform="translate(-108.17 -256.84)"/><path class="cls-1" d="M339.38,390c-2.87-2.07-5.77-4.1-8.6-6.23a3.21,3.21,0,0,1-.88-1.68,49.83,49.83,0,0,1-1.52-8.14l11.29,15.65Z" transform="translate(-108.17 -256.84)"/><path class="cls-1" d="M312.07,491.6c-1.93-.16-3-1.11-3.06-3a3,3,0,1,1,5.9,0A2.82,2.82,0,0,1,312.07,491.6Z" transform="translate(-108.17 -256.84)"/></svg>